<?xml version="1.0" encoding="UTF-8" standalone="no"?>
<!DOCTYPE svg PUBLIC "-//W3C//DTD SVG 1.1//EN"
 "http://www.w3.org/Graphics/SVG/1.1/DTD/svg11.dtd">
<!-- Generated by graphviz version 13.1.0 (20250701.0955)
 -->
<!-- Title: G Pages: 1 -->
<svg width="852pt" height="571pt"
 viewBox="0.00 0.00 852.00 571.00" xmlns="http://www.w3.org/2000/svg" xmlns:xlink="http://www.w3.org/1999/xlink">
<g id="graph0" class="graph" transform="scale(1 1) rotate(0) translate(21.6 549.35)">
<title>G</title>
<polygon fill="#111111" stroke="none" points="-21.6,21.6 -21.6,-549.35 830.35,-549.35 830.35,21.6 -21.6,21.6"/>
<!-- App.tsx -->
<g id="node1" class="node">
<title>App.tsx</title>
<path fill="none" stroke="#c6c5fe" d="M53.08,-275.75C53.08,-275.75 7.92,-275.75 7.92,-275.75 3.96,-275.75 0,-271.79 0,-267.83 0,-267.83 0,-259.92 0,-259.92 0,-255.96 3.96,-252 7.92,-252 7.92,-252 53.08,-252 53.08,-252 57.04,-252 61,-255.96 61,-259.92 61,-259.92 61,-267.83 61,-267.83 61,-271.79 57.04,-275.75 53.08,-275.75"/>
<text xml:space="preserve" text-anchor="middle" x="30.5" y="-258.45" font-family="Arial" font-size="14.00" fill="#c6c5fe">App.tsx</text>
</g>
<!-- pages/Calendar.tsx -->
<g id="node2" class="node">
<title>pages/Calendar.tsx</title>
<path fill="none" stroke="#c6c5fe" d="M228.08,-275.75C228.08,-275.75 112.42,-275.75 112.42,-275.75 108.46,-275.75 104.5,-271.79 104.5,-267.83 104.5,-267.83 104.5,-259.92 104.5,-259.92 104.5,-255.96 108.46,-252 112.42,-252 112.42,-252 228.08,-252 228.08,-252 232.04,-252 236,-255.96 236,-259.92 236,-259.92 236,-267.83 236,-267.83 236,-271.79 232.04,-275.75 228.08,-275.75"/>
<text xml:space="preserve" text-anchor="middle" x="170.25" y="-258.45" font-family="Arial" font-size="14.00" fill="#c6c5fe">pages/Calendar.tsx</text>
</g>
<!-- App.tsx&#45;&gt;pages/Calendar.tsx -->
<g id="edge1" class="edge">
<title>App.tsx&#45;&gt;pages/Calendar.tsx</title>
<path fill="none" stroke="#757575" d="M61.39,-263.88C70.83,-263.88 81.72,-263.88 92.87,-263.88"/>
<polygon fill="#757575" stroke="#757575" points="92.56,-267.38 102.56,-263.88 92.56,-260.38 92.56,-267.38"/>
</g>
<!-- pages/Homepage.tsx -->
<g id="node3" class="node">
<title>pages/Homepage.tsx</title>
<path fill="none" stroke="#c6c5fe" d="M234.46,-401.75C234.46,-401.75 106.04,-401.75 106.04,-401.75 102.08,-401.75 98.12,-397.79 98.12,-393.83 98.12,-393.83 98.12,-385.92 98.12,-385.92 98.12,-381.96 102.08,-378 106.04,-378 106.04,-378 234.46,-378 234.46,-378 238.42,-378 242.38,-381.96 242.38,-385.92 242.38,-385.92 242.38,-393.83 242.38,-393.83 242.38,-397.79 238.42,-401.75 234.46,-401.75"/>
<text xml:space="preserve" text-anchor="middle" x="170.25" y="-384.45" font-family="Arial" font-size="14.00" fill="#c6c5fe">pages/Homepage.tsx</text>
</g>
<!-- App.tsx&#45;&gt;pages/Homepage.tsx -->
<g id="edge2" class="edge">
<title>App.tsx&#45;&gt;pages/Homepage.tsx</title>
<path fill="none" stroke="#757575" d="M44.96,-276.19C68.89,-298.07 119.01,-343.92 147.76,-370.21"/>
<polygon fill="#757575" stroke="#757575" points="145.08,-372.51 154.82,-376.68 149.81,-367.35 145.08,-372.51"/>
</g>
<!-- pages/SubmitIdea.tsx -->
<g id="node4" class="node">
<title>pages/SubmitIdea.tsx</title>
<path fill="none" stroke="#c6c5fe" d="M235.58,-128.75C235.58,-128.75 104.92,-128.75 104.92,-128.75 100.96,-128.75 97,-124.79 97,-120.83 97,-120.83 97,-112.92 97,-112.92 97,-108.96 100.96,-105 104.92,-105 104.92,-105 235.58,-105 235.58,-105 239.54,-105 243.5,-108.96 243.5,-112.92 243.5,-112.92 243.5,-120.83 243.5,-120.83 243.5,-124.79 239.54,-128.75 235.58,-128.75"/>
<text xml:space="preserve" text-anchor="middle" x="170.25" y="-111.45" font-family="Arial" font-size="14.00" fill="#c6c5fe">pages/SubmitIdea.tsx</text>
</g>
<!-- App.tsx&#45;&gt;pages/SubmitIdea.tsx -->
<g id="edge3" class="edge">
<title>App.tsx&#45;&gt;pages/SubmitIdea.tsx</title>
<path fill="none" stroke="#757575" d="M43.01,-251.59C66.67,-226.35 120.98,-168.39 150.05,-137.36"/>
<polygon fill="#757575" stroke="#757575" points="152.55,-139.81 156.84,-130.12 147.45,-135.03 152.55,-139.81"/>
</g>
<!-- components/Button.tsx -->
<g id="node6" class="node">
<title>components/Button.tsx</title>
<path fill="none" stroke="#cfffac" d="M475.46,-191.75C475.46,-191.75 337.29,-191.75 337.29,-191.75 333.33,-191.75 329.38,-187.79 329.38,-183.83 329.38,-183.83 329.38,-175.92 329.38,-175.92 329.38,-171.96 333.33,-168 337.29,-168 337.29,-168 475.46,-168 475.46,-168 479.42,-168 483.38,-171.96 483.38,-175.92 483.38,-175.92 483.38,-183.83 483.38,-183.83 483.38,-187.79 479.42,-191.75 475.46,-191.75"/>
<text xml:space="preserve" text-anchor="middle" x="406.38" y="-174.45" font-family="Arial" font-size="14.00" fill="#cfffac">components/Button.tsx</text>
</g>
<!-- pages/Calendar.tsx&#45;&gt;components/Button.tsx -->
<g id="edge9" class="edge">
<title>pages/Calendar.tsx&#45;&gt;components/Button.tsx</title>
<path fill="none" stroke="#757575" d="M187.92,-251.57C208.4,-237.08 244.73,-213.42 279.5,-200.88 291.71,-196.47 304.93,-192.98 318.05,-190.22"/>
<polygon fill="#757575" stroke="#757575" points="318.4,-193.72 327.54,-188.36 317.05,-186.85 318.4,-193.72"/>
</g>
<!-- components/Calendar1.tsx -->
<g id="node7" class="node">
<title>components/Calendar1.tsx</title>
<path fill="none" stroke="#c6c5fe" d="M487.08,-275.75C487.08,-275.75 325.67,-275.75 325.67,-275.75 321.71,-275.75 317.75,-271.79 317.75,-267.83 317.75,-267.83 317.75,-259.92 317.75,-259.92 317.75,-255.96 321.71,-252 325.67,-252 325.67,-252 487.08,-252 487.08,-252 491.04,-252 495,-255.96 495,-259.92 495,-259.92 495,-267.83 495,-267.83 495,-271.79 491.04,-275.75 487.08,-275.75"/>
<text xml:space="preserve" text-anchor="middle" x="406.38" y="-258.45" font-family="Arial" font-size="14.00" fill="#c6c5fe">components/Calendar1.tsx</text>
</g>
<!-- pages/Calendar.tsx&#45;&gt;components/Calendar1.tsx -->
<g id="edge10" class="edge">
<title>pages/Calendar.tsx&#45;&gt;components/Calendar1.tsx</title>
<path fill="none" stroke="#757575" d="M236.47,-263.88C257.98,-263.88 282.42,-263.88 305.89,-263.88"/>
<polygon fill="#757575" stroke="#757575" points="305.8,-267.38 315.8,-263.88 305.8,-260.38 305.8,-267.38"/>
</g>
<!-- components/Infobox.tsx -->
<g id="node12" class="node">
<title>components/Infobox.tsx</title>
<path fill="none" stroke="#cfffac" d="M478.08,-233.75C478.08,-233.75 334.67,-233.75 334.67,-233.75 330.71,-233.75 326.75,-229.79 326.75,-225.83 326.75,-225.83 326.75,-217.92 326.75,-217.92 326.75,-213.96 330.71,-210 334.67,-210 334.67,-210 478.08,-210 478.08,-210 482.04,-210 486,-213.96 486,-217.92 486,-217.92 486,-225.83 486,-225.83 486,-229.79 482.04,-233.75 478.08,-233.75"/>
<text xml:space="preserve" text-anchor="middle" x="406.38" y="-216.45" font-family="Arial" font-size="14.00" fill="#cfffac">components/Infobox.tsx</text>
</g>
<!-- pages/Calendar.tsx&#45;&gt;components/Infobox.tsx -->
<g id="edge11" class="edge">
<title>pages/Calendar.tsx&#45;&gt;components/Infobox.tsx</title>
<path fill="none" stroke="#757575" d="M233.31,-251.55C248.41,-248.63 264.52,-245.58 279.5,-242.88 291.98,-240.62 305.17,-238.33 318.13,-236.12"/>
<polygon fill="#757575" stroke="#757575" points="318.67,-239.58 327.95,-234.46 317.5,-232.68 318.67,-239.58"/>
</g>
<!-- components/InitiativesList.tsx -->
<g id="node14" class="node">
<title>components/InitiativesList.tsx</title>
<path fill="none" stroke="#c6c5fe" d="M494.58,-317.75C494.58,-317.75 318.17,-317.75 318.17,-317.75 314.21,-317.75 310.25,-313.79 310.25,-309.83 310.25,-309.83 310.25,-301.92 310.25,-301.92 310.25,-297.96 314.21,-294 318.17,-294 318.17,-294 494.58,-294 494.58,-294 498.54,-294 502.5,-297.96 502.5,-301.92 502.5,-301.92 502.5,-309.83 502.5,-309.83 502.5,-313.79 498.54,-317.75 494.58,-317.75"/>
<text xml:space="preserve" text-anchor="middle" x="406.38" y="-300.45" font-family="Arial" font-size="14.00" fill="#c6c5fe">components/InitiativesList.tsx</text>
</g>
<!-- pages/Calendar.tsx&#45;&gt;components/InitiativesList.tsx -->
<g id="edge12" class="edge">
<title>pages/Calendar.tsx&#45;&gt;components/InitiativesList.tsx</title>
<path fill="none" stroke="#757575" d="M233.31,-276.2C248.41,-279.12 264.52,-282.17 279.5,-284.88 291.98,-287.13 305.17,-289.42 318.13,-291.63"/>
<polygon fill="#757575" stroke="#757575" points="317.5,-295.07 327.95,-293.29 318.67,-288.17 317.5,-295.07"/>
</g>
<!-- components/NavigationBar.tsx -->
<g id="node15" class="node">
<title>components/NavigationBar.tsx</title>
<path fill="none" stroke="#cfffac" d="M497.96,-359.75C497.96,-359.75 314.79,-359.75 314.79,-359.75 310.83,-359.75 306.88,-355.79 306.88,-351.83 306.88,-351.83 306.88,-343.92 306.88,-343.92 306.88,-339.96 310.83,-336 314.79,-336 314.79,-336 497.96,-336 497.96,-336 501.92,-336 505.88,-339.96 505.88,-343.92 505.88,-343.92 505.88,-351.83 505.88,-351.83 505.88,-355.79 501.92,-359.75 497.96,-359.75"/>
<text xml:space="preserve" text-anchor="middle" x="406.38" y="-342.45" font-family="Arial" font-size="14.00" fill="#cfffac">components/NavigationBar.tsx</text>
</g>
<!-- pages/Calendar.tsx&#45;&gt;components/NavigationBar.tsx -->
<g id="edge13" class="edge">
<title>pages/Calendar.tsx&#45;&gt;components/NavigationBar.tsx</title>
<path fill="none" stroke="#757575" d="M187.92,-276.18C208.4,-290.67 244.73,-314.33 279.5,-326.88 285.57,-329.07 291.9,-331.03 298.33,-332.79"/>
<polygon fill="#757575" stroke="#757575" points="297.23,-336.12 307.78,-335.19 298.95,-329.34 297.23,-336.12"/>
</g>
<!-- pages/Homepage.tsx&#45;&gt;components/Button.tsx -->
<g id="edge14" class="edge">
<title>pages/Homepage.tsx&#45;&gt;components/Button.tsx</title>
<path fill="none" stroke="#757575" d="M180.76,-377.78C195.43,-358.76 223.95,-320.34 243.5,-284.88 263.11,-249.3 247.55,-225.96 279.5,-200.88 290.64,-192.13 304.06,-186.44 317.93,-182.83"/>
<polygon fill="#757575" stroke="#757575" points="318.63,-186.26 327.64,-180.69 317.12,-179.43 318.63,-186.26"/>
</g>
<!-- components/FrameComponent1.tsx -->
<g id="node10" class="node">
<title>components/FrameComponent1.tsx</title>
<path fill="none" stroke="#cfffac" d="M514.83,-485.75C514.83,-485.75 297.92,-485.75 297.92,-485.75 293.96,-485.75 290,-481.79 290,-477.83 290,-477.83 290,-469.92 290,-469.92 290,-465.96 293.96,-462 297.92,-462 297.92,-462 514.83,-462 514.83,-462 518.79,-462 522.75,-465.96 522.75,-469.92 522.75,-469.92 522.75,-477.83 522.75,-477.83 522.75,-481.79 518.79,-485.75 514.83,-485.75"/>
<text xml:space="preserve" text-anchor="middle" x="406.38" y="-468.45" font-family="Arial" font-size="14.00" fill="#cfffac">components/FrameComponent1.tsx</text>
</g>
<!-- pages/Homepage.tsx&#45;&gt;components/FrameComponent1.tsx -->
<g id="edge15" class="edge">
<title>pages/Homepage.tsx&#45;&gt;components/FrameComponent1.tsx</title>
<path fill="none" stroke="#757575" d="M187.92,-402.18C208.4,-416.67 244.73,-440.33 279.5,-452.88 285.57,-455.07 291.9,-457.03 298.33,-458.79"/>
<polygon fill="#757575" stroke="#757575" points="297.23,-462.12 307.78,-461.19 298.95,-455.34 297.23,-462.12"/>
</g>
<!-- components/IdeaVoting.tsx -->
<g id="node11" class="node">
<title>components/IdeaVoting.tsx</title>
<path fill="none" stroke="#c6c5fe" d="M487.83,-527.75C487.83,-527.75 324.92,-527.75 324.92,-527.75 320.96,-527.75 317,-523.79 317,-519.83 317,-519.83 317,-511.92 317,-511.92 317,-507.96 320.96,-504 324.92,-504 324.92,-504 487.83,-504 487.83,-504 491.79,-504 495.75,-507.96 495.75,-511.92 495.75,-511.92 495.75,-519.83 495.75,-519.83 495.75,-523.79 491.79,-527.75 487.83,-527.75"/>
<text xml:space="preserve" text-anchor="middle" x="406.38" y="-510.45" font-family="Arial" font-size="14.00" fill="#c6c5fe">components/IdeaVoting.tsx</text>
</g>
<!-- pages/Homepage.tsx&#45;&gt;components/IdeaVoting.tsx -->
<g id="edge16" class="edge">
<title>pages/Homepage.tsx&#45;&gt;components/IdeaVoting.tsx</title>
<path fill="none" stroke="#757575" d="M179.75,-402.03C196.17,-424.48 234.63,-472.21 279.5,-494.88 287.65,-498.99 296.45,-502.33 305.46,-505.03"/>
<polygon fill="#757575" stroke="#757575" points="304.51,-508.4 315.08,-507.62 306.33,-501.64 304.51,-508.4"/>
</g>
<!-- pages/Homepage.tsx&#45;&gt;components/NavigationBar.tsx -->
<g id="edge17" class="edge">
<title>pages/Homepage.tsx&#45;&gt;components/NavigationBar.tsx</title>
<path fill="none" stroke="#757575" d="M233.31,-377.55C248.41,-374.63 264.52,-371.58 279.5,-368.88 291.98,-366.62 305.17,-364.33 318.13,-362.12"/>
<polygon fill="#757575" stroke="#757575" points="318.67,-365.58 327.95,-360.46 317.5,-358.68 318.67,-365.58"/>
</g>
<!-- components/OngoingInitiativesList.tsx -->
<g id="node16" class="node">
<title>components/OngoingInitiativesList.tsx</title>
<path fill="none" stroke="#c6c5fe" d="M520.46,-401.75C520.46,-401.75 292.29,-401.75 292.29,-401.75 288.33,-401.75 284.38,-397.79 284.38,-393.83 284.38,-393.83 284.38,-385.92 284.38,-385.92 284.38,-381.96 288.33,-378 292.29,-378 292.29,-378 520.46,-378 520.46,-378 524.42,-378 528.38,-381.96 528.38,-385.92 528.38,-385.92 528.38,-393.83 528.38,-393.83 528.38,-397.79 524.42,-401.75 520.46,-401.75"/>
<text xml:space="preserve" text-anchor="middle" x="406.38" y="-384.45" font-family="Arial" font-size="14.00" fill="#c6c5fe">components/OngoingInitiativesList.tsx</text>
</g>
<!-- pages/Homepage.tsx&#45;&gt;components/OngoingInitiativesList.tsx -->
<g id="edge18" class="edge">
<title>pages/Homepage.tsx&#45;&gt;components/OngoingInitiativesList.tsx</title>
<path fill="none" stroke="#757575" d="M242.77,-389.88C252.45,-389.88 262.62,-389.88 272.95,-389.88"/>
<polygon fill="#757575" stroke="#757575" points="272.69,-393.38 282.69,-389.88 272.69,-386.38 272.69,-393.38"/>
</g>
<!-- components/UpcomingInitiativesList.tsx -->
<g id="node20" class="node">
<title>components/UpcomingInitiativesList.tsx</title>
<path fill="none" stroke="#c6c5fe" d="M525.33,-443.75C525.33,-443.75 287.42,-443.75 287.42,-443.75 283.46,-443.75 279.5,-439.79 279.5,-435.83 279.5,-435.83 279.5,-427.92 279.5,-427.92 279.5,-423.96 283.46,-420 287.42,-420 287.42,-420 525.33,-420 525.33,-420 529.29,-420 533.25,-423.96 533.25,-427.92 533.25,-427.92 533.25,-435.83 533.25,-435.83 533.25,-439.79 529.29,-443.75 525.33,-443.75"/>
<text xml:space="preserve" text-anchor="middle" x="406.38" y="-426.45" font-family="Arial" font-size="14.00" fill="#c6c5fe">components/UpcomingInitiativesList.tsx</text>
</g>
<!-- pages/Homepage.tsx&#45;&gt;components/UpcomingInitiativesList.tsx -->
<g id="edge19" class="edge">
<title>pages/Homepage.tsx&#45;&gt;components/UpcomingInitiativesList.tsx</title>
<path fill="none" stroke="#757575" d="M233.31,-402.2C248.41,-405.12 264.52,-408.17 279.5,-410.88 291.98,-413.13 305.17,-415.42 318.13,-417.63"/>
<polygon fill="#757575" stroke="#757575" points="317.5,-421.07 327.95,-419.29 318.67,-414.17 317.5,-421.07"/>
</g>
<!-- pages/SubmitIdea.tsx&#45;&gt;components/Button.tsx -->
<g id="edge20" class="edge">
<title>pages/SubmitIdea.tsx&#45;&gt;components/Button.tsx</title>
<path fill="none" stroke="#757575" d="M198.31,-129.16C219.9,-138.52 251.12,-151.09 279.5,-158.88 291.73,-162.23 304.78,-165.13 317.68,-167.62"/>
<polygon fill="#757575" stroke="#757575" points="316.99,-171.05 327.46,-169.43 318.26,-164.17 316.99,-171.05"/>
</g>
<!-- components/Checkbox.tsx -->
<g id="node9" class="node">
<title>components/Checkbox.tsx</title>
<path fill="none" stroke="#cfffac" d="M485.96,-23.75C485.96,-23.75 326.79,-23.75 326.79,-23.75 322.83,-23.75 318.88,-19.79 318.88,-15.83 318.88,-15.83 318.88,-7.92 318.88,-7.92 318.88,-3.96 322.83,0 326.79,0 326.79,0 485.96,0 485.96,0 489.92,0 493.88,-3.96 493.88,-7.92 493.88,-7.92 493.88,-15.83 493.88,-15.83 493.88,-19.79 489.92,-23.75 485.96,-23.75"/>
<text xml:space="preserve" text-anchor="middle" x="406.38" y="-6.45" font-family="Arial" font-size="14.00" fill="#cfffac">components/Checkbox.tsx</text>
</g>
<!-- pages/SubmitIdea.tsx&#45;&gt;components/Checkbox.tsx -->
<g id="edge21" class="edge">
<title>pages/SubmitIdea.tsx&#45;&gt;components/Checkbox.tsx</title>
<path fill="none" stroke="#757575" d="M182.91,-104.54C201.44,-85.75 239.62,-50.33 279.5,-32.88 288.35,-29 297.83,-25.84 307.48,-23.26"/>
<polygon fill="#757575" stroke="#757575" points="308.07,-26.72 316.95,-20.94 306.4,-19.92 308.07,-26.72"/>
</g>
<!-- components/Select.tsx -->
<g id="node17" class="node">
<title>components/Select.tsx</title>
<path fill="none" stroke="#cfffac" d="M474.71,-149.75C474.71,-149.75 338.04,-149.75 338.04,-149.75 334.08,-149.75 330.12,-145.79 330.12,-141.83 330.12,-141.83 330.12,-133.92 330.12,-133.92 330.12,-129.96 334.08,-126 338.04,-126 338.04,-126 474.71,-126 474.71,-126 478.67,-126 482.62,-129.96 482.62,-133.92 482.62,-133.92 482.62,-141.83 482.62,-141.83 482.62,-145.79 478.67,-149.75 474.71,-149.75"/>
<text xml:space="preserve" text-anchor="middle" x="406.38" y="-132.45" font-family="Arial" font-size="14.00" fill="#cfffac">components/Select.tsx</text>
</g>
<!-- pages/SubmitIdea.tsx&#45;&gt;components/Select.tsx -->
<g id="edge22" class="edge">
<title>pages/SubmitIdea.tsx&#45;&gt;components/Select.tsx</title>
<path fill="none" stroke="#757575" d="M243.73,-123.38C267.48,-125.51 294.12,-127.9 318.81,-130.11"/>
<polygon fill="#757575" stroke="#757575" points="318.22,-133.57 328.5,-130.98 318.85,-126.6 318.22,-133.57"/>
</g>
<!-- components/TextArea.tsx -->
<g id="node18" class="node">
<title>components/TextArea.tsx</title>
<path fill="none" stroke="#cfffac" d="M482.58,-107.75C482.58,-107.75 330.17,-107.75 330.17,-107.75 326.21,-107.75 322.25,-103.79 322.25,-99.83 322.25,-99.83 322.25,-91.92 322.25,-91.92 322.25,-87.96 326.21,-84 330.17,-84 330.17,-84 482.58,-84 482.58,-84 486.54,-84 490.5,-87.96 490.5,-91.92 490.5,-91.92 490.5,-99.83 490.5,-99.83 490.5,-103.79 486.54,-107.75 482.58,-107.75"/>
<text xml:space="preserve" text-anchor="middle" x="406.38" y="-90.45" font-family="Arial" font-size="14.00" fill="#cfffac">components/TextArea.tsx</text>
</g>
<!-- pages/SubmitIdea.tsx&#45;&gt;components/TextArea.tsx -->
<g id="edge23" class="edge">
<title>pages/SubmitIdea.tsx&#45;&gt;components/TextArea.tsx</title>
<path fill="none" stroke="#757575" d="M243.73,-110.37C264.86,-108.48 288.28,-106.38 310.58,-104.38"/>
<polygon fill="#757575" stroke="#757575" points="310.62,-107.89 320.27,-103.51 309.99,-100.92 310.62,-107.89"/>
</g>
<!-- components/TextField.tsx -->
<g id="node19" class="node">
<title>components/TextField.tsx</title>
<path fill="none" stroke="#cfffac" d="M482.96,-65.75C482.96,-65.75 329.79,-65.75 329.79,-65.75 325.83,-65.75 321.88,-61.79 321.88,-57.83 321.88,-57.83 321.88,-49.92 321.88,-49.92 321.88,-45.96 325.83,-42 329.79,-42 329.79,-42 482.96,-42 482.96,-42 486.92,-42 490.88,-45.96 490.88,-49.92 490.88,-49.92 490.88,-57.83 490.88,-57.83 490.88,-61.79 486.92,-65.75 482.96,-65.75"/>
<text xml:space="preserve" text-anchor="middle" x="406.38" y="-48.45" font-family="Arial" font-size="14.00" fill="#cfffac">components/TextField.tsx</text>
</g>
<!-- pages/SubmitIdea.tsx&#45;&gt;components/TextField.tsx -->
<g id="edge24" class="edge">
<title>pages/SubmitIdea.tsx&#45;&gt;components/TextField.tsx</title>
<path fill="none" stroke="#757575" d="M198.31,-104.59C219.9,-95.23 251.12,-82.66 279.5,-74.88 289.49,-72.13 300.03,-69.69 310.59,-67.54"/>
<polygon fill="#757575" stroke="#757575" points="310.94,-71.03 320.08,-65.68 309.6,-64.16 310.94,-71.03"/>
</g>
<!-- components/Accordion.tsx -->
<g id="node5" class="node">
<title>components/Accordion.tsx</title>
<path fill="none" stroke="#cfffac" d="M768.58,-527.75C768.58,-527.75 609.42,-527.75 609.42,-527.75 605.46,-527.75 601.5,-523.79 601.5,-519.83 601.5,-519.83 601.5,-511.92 601.5,-511.92 601.5,-507.96 605.46,-504 609.42,-504 609.42,-504 768.58,-504 768.58,-504 772.54,-504 776.5,-507.96 776.5,-511.92 776.5,-511.92 776.5,-519.83 776.5,-519.83 776.5,-523.79 772.54,-527.75 768.58,-527.75"/>
<text xml:space="preserve" text-anchor="middle" x="689" y="-510.45" font-family="Arial" font-size="14.00" fill="#cfffac">components/Accordion.tsx</text>
</g>
<!-- components/CalendarWithEntries.tsx -->
<g id="node8" class="node">
<title>components/CalendarWithEntries.tsx</title>
<path fill="none" stroke="#cfffac" d="M800.83,-275.75C800.83,-275.75 577.17,-275.75 577.17,-275.75 573.21,-275.75 569.25,-271.79 569.25,-267.83 569.25,-267.83 569.25,-259.92 569.25,-259.92 569.25,-255.96 573.21,-252 577.17,-252 577.17,-252 800.83,-252 800.83,-252 804.79,-252 808.75,-255.96 808.75,-259.92 808.75,-259.92 808.75,-267.83 808.75,-267.83 808.75,-271.79 804.79,-275.75 800.83,-275.75"/>
<text xml:space="preserve" text-anchor="middle" x="689" y="-258.45" font-family="Arial" font-size="14.00" fill="#cfffac">components/CalendarWithEntries.tsx</text>
</g>
<!-- components/Calendar1.tsx&#45;&gt;components/CalendarWithEntries.tsx -->
<g id="edge4" class="edge">
<title>components/Calendar1.tsx&#45;&gt;components/CalendarWithEntries.tsx</title>
<path fill="none" stroke="#757575" d="M495.4,-263.88C515.15,-263.88 536.52,-263.88 557.59,-263.88"/>
<polygon fill="#757575" stroke="#757575" points="557.4,-267.38 567.4,-263.88 557.4,-260.38 557.4,-267.38"/>
</g>
<!-- components/IdeaVoting.tsx&#45;&gt;components/Accordion.tsx -->
<g id="edge5" class="edge">
<title>components/IdeaVoting.tsx&#45;&gt;components/Accordion.tsx</title>
<path fill="none" stroke="#757575" d="M496.17,-515.88C525.92,-515.88 559.27,-515.88 589.72,-515.88"/>
<polygon fill="#757575" stroke="#757575" points="589.71,-519.38 599.71,-515.88 589.71,-512.38 589.71,-519.38"/>
</g>
<!-- components/InitiativeCard.tsx -->
<g id="node13" class="node">
<title>components/InitiativeCard.tsx</title>
<path fill="none" stroke="#cfffac" d="M777.96,-401.75C777.96,-401.75 600.04,-401.75 600.04,-401.75 596.08,-401.75 592.12,-397.79 592.12,-393.83 592.12,-393.83 592.12,-385.92 592.12,-385.92 592.12,-381.96 596.08,-378 600.04,-378 600.04,-378 777.96,-378 777.96,-378 781.92,-378 785.88,-381.96 785.88,-385.92 785.88,-385.92 785.88,-393.83 785.88,-393.83 785.88,-397.79 781.92,-401.75 777.96,-401.75"/>
<text xml:space="preserve" text-anchor="middle" x="689" y="-384.45" font-family="Arial" font-size="14.00" fill="#cfffac">components/InitiativeCard.tsx</text>
</g>
<!-- components/InitiativesList.tsx&#45;&gt;components/InitiativeCard.tsx -->
<g id="edge6" class="edge">
<title>components/InitiativesList.tsx&#45;&gt;components/InitiativeCard.tsx</title>
<path fill="none" stroke="#757575" d="M496.63,-318.24C509.03,-320.69 521.53,-323.55 533.25,-326.88 575.44,-338.82 621.77,-358.63 652.63,-372.85"/>
<polygon fill="#757575" stroke="#757575" points="650.96,-375.93 661.5,-376.98 653.92,-369.58 650.96,-375.93"/>
</g>
<!-- components/OngoingInitiativesList.tsx&#45;&gt;components/InitiativeCard.tsx -->
<g id="edge7" class="edge">
<title>components/OngoingInitiativesList.tsx&#45;&gt;components/InitiativeCard.tsx</title>
<path fill="none" stroke="#757575" d="M528.83,-389.88C546.08,-389.88 563.73,-389.88 580.69,-389.88"/>
<polygon fill="#757575" stroke="#757575" points="580.21,-393.38 590.21,-389.88 580.21,-386.38 580.21,-393.38"/>
</g>
<!-- components/UpcomingInitiativesList.tsx&#45;&gt;components/InitiativeCard.tsx -->
<g id="edge8" class="edge">
<title>components/UpcomingInitiativesList.tsx&#45;&gt;components/InitiativeCard.tsx</title>
<path fill="none" stroke="#757575" d="M490.05,-419.5C522.74,-414.61 560.47,-408.96 594.17,-403.92"/>
<polygon fill="#757575" stroke="#757575" points="594.56,-407.4 603.93,-402.46 593.52,-400.48 594.56,-407.4"/>
</g>
</g>
</svg>
