<?xml version="1.0" encoding="UTF-8" standalone="no"?>
<!DOCTYPE svg PUBLIC "-//W3C//DTD SVG 1.1//EN"
 "http://www.w3.org/Graphics/SVG/1.1/DTD/svg11.dtd">
<!-- Generated by graphviz version 13.1.0 (20250701.0955)
 -->
<!-- Title: G Pages: 1 -->
<svg width="1867pt" height="655pt"
 viewBox="0.00 0.00 1867.00 655.00" xmlns="http://www.w3.org/2000/svg" xmlns:xlink="http://www.w3.org/1999/xlink">
<g id="graph0" class="graph" transform="scale(1 1) rotate(0) translate(21.6 633.35)">
<title>G</title>
<polygon fill="#111111" stroke="none" points="-21.6,21.6 -21.6,-633.35 1845.85,-633.35 1845.85,21.6 -21.6,21.6"/>
<!-- App.tsx -->
<g id="node1" class="node">
<title>App.tsx</title>
<path fill="none" stroke="#c6c5fe" d="M53.08,-285.75C53.08,-285.75 7.92,-285.75 7.92,-285.75 3.96,-285.75 0,-281.79 0,-277.83 0,-277.83 0,-269.92 0,-269.92 0,-265.96 3.96,-262 7.92,-262 7.92,-262 53.08,-262 53.08,-262 57.04,-262 61,-265.96 61,-269.92 61,-269.92 61,-277.83 61,-277.83 61,-281.79 57.04,-285.75 53.08,-285.75"/>
<text xml:space="preserve" text-anchor="middle" x="30.5" y="-268.45" font-family="Arial" font-size="14.00" fill="#c6c5fe">App.tsx</text>
</g>
<!-- screens/CalendarScreen/index.ts -->
<g id="node2" class="node">
<title>screens/CalendarScreen/index.ts</title>
<path fill="none" stroke="#c6c5fe" d="M303.83,-400.75C303.83,-400.75 104.92,-400.75 104.92,-400.75 100.96,-400.75 97,-396.79 97,-392.83 97,-392.83 97,-384.92 97,-384.92 97,-380.96 100.96,-377 104.92,-377 104.92,-377 303.83,-377 303.83,-377 307.79,-377 311.75,-380.96 311.75,-384.92 311.75,-384.92 311.75,-392.83 311.75,-392.83 311.75,-396.79 307.79,-400.75 303.83,-400.75"/>
<text xml:space="preserve" text-anchor="middle" x="204.38" y="-383.45" font-family="Arial" font-size="14.00" fill="#c6c5fe">screens/CalendarScreen/index.ts</text>
</g>
<!-- App.tsx&#45;&gt;screens/CalendarScreen/index.ts -->
<g id="edge1" class="edge">
<title>App.tsx&#45;&gt;screens/CalendarScreen/index.ts</title>
<path fill="none" stroke="#757575" d="M42.14,-286.19C54.37,-299.83 75.54,-321.86 97,-336.88 116.99,-350.86 141.31,-363.05 161.64,-372.11"/>
<polygon fill="#757575" stroke="#757575" points="160.22,-375.3 170.78,-376.08 163,-368.88 160.22,-375.3"/>
</g>
<!-- screens/Homepage/index.ts -->
<g id="node3" class="node">
<title>screens/Homepage/index.ts</title>
<path fill="none" stroke="#c6c5fe" d="M288.46,-327.75C288.46,-327.75 120.29,-327.75 120.29,-327.75 116.33,-327.75 112.38,-323.79 112.38,-319.83 112.38,-319.83 112.38,-311.92 112.38,-311.92 112.38,-307.96 116.33,-304 120.29,-304 120.29,-304 288.46,-304 288.46,-304 292.42,-304 296.38,-307.96 296.38,-311.92 296.38,-311.92 296.38,-319.83 296.38,-319.83 296.38,-323.79 292.42,-327.75 288.46,-327.75"/>
<text xml:space="preserve" text-anchor="middle" x="204.38" y="-310.45" font-family="Arial" font-size="14.00" fill="#c6c5fe">screens/Homepage/index.ts</text>
</g>
<!-- App.tsx&#45;&gt;screens/Homepage/index.ts -->
<g id="edge2" class="edge">
<title>App.tsx&#45;&gt;screens/Homepage/index.ts</title>
<path fill="none" stroke="#757575" d="M61.44,-281.19C83.59,-286.6 114.52,-294.16 141.86,-300.84"/>
<polygon fill="#757575" stroke="#757575" points="140.91,-304.21 151.45,-303.19 142.57,-297.41 140.91,-304.21"/>
</g>
<!-- screens/Modal/index.ts -->
<g id="node4" class="node">
<title>screens/Modal/index.ts</title>
<path fill="none" stroke="#c6c5fe" d="M273.83,-264.75C273.83,-264.75 134.92,-264.75 134.92,-264.75 130.96,-264.75 127,-260.79 127,-256.83 127,-256.83 127,-248.92 127,-248.92 127,-244.96 130.96,-241 134.92,-241 134.92,-241 273.83,-241 273.83,-241 277.79,-241 281.75,-244.96 281.75,-248.92 281.75,-248.92 281.75,-256.83 281.75,-256.83 281.75,-260.79 277.79,-264.75 273.83,-264.75"/>
<text xml:space="preserve" text-anchor="middle" x="204.38" y="-247.45" font-family="Arial" font-size="14.00" fill="#c6c5fe">screens/Modal/index.ts</text>
</g>
<!-- App.tsx&#45;&gt;screens/Modal/index.ts -->
<g id="edge3" class="edge">
<title>App.tsx&#45;&gt;screens/Modal/index.ts</title>
<path fill="none" stroke="#757575" d="M61.44,-270.22C76.55,-268.37 95.76,-266.02 115.13,-263.66"/>
<polygon fill="#757575" stroke="#757575" points="115.51,-267.14 125.02,-262.45 114.66,-260.19 115.51,-267.14"/>
</g>
<!-- screens/SubmitIdea/index.ts -->
<g id="node5" class="node">
<title>screens/SubmitIdea/index.ts</title>
<path fill="none" stroke="#c6c5fe" d="M289.58,-201.75C289.58,-201.75 119.17,-201.75 119.17,-201.75 115.21,-201.75 111.25,-197.79 111.25,-193.83 111.25,-193.83 111.25,-185.92 111.25,-185.92 111.25,-181.96 115.21,-178 119.17,-178 119.17,-178 289.58,-178 289.58,-178 293.54,-178 297.5,-181.96 297.5,-185.92 297.5,-185.92 297.5,-193.83 297.5,-193.83 297.5,-197.79 293.54,-201.75 289.58,-201.75"/>
<text xml:space="preserve" text-anchor="middle" x="204.38" y="-184.45" font-family="Arial" font-size="14.00" fill="#c6c5fe">screens/SubmitIdea/index.ts</text>
</g>
<!-- App.tsx&#45;&gt;screens/SubmitIdea/index.ts -->
<g id="edge4" class="edge">
<title>App.tsx&#45;&gt;screens/SubmitIdea/index.ts</title>
<path fill="none" stroke="#757575" d="M48.74,-261.51C61.64,-252.58 79.92,-240.62 97,-231.88 115.91,-222.19 137.6,-213.27 156.44,-206.16"/>
<polygon fill="#757575" stroke="#757575" points="157.57,-209.47 165.74,-202.72 155.14,-202.91 157.57,-209.47"/>
</g>
<!-- screens/CalendarScreen/CalendarScreen.tsx -->
<g id="node40" class="node">
<title>screens/CalendarScreen/CalendarScreen.tsx</title>
<path fill="none" stroke="#c6c5fe" d="M626.58,-422.75C626.58,-422.75 355.67,-422.75 355.67,-422.75 351.71,-422.75 347.75,-418.79 347.75,-414.83 347.75,-414.83 347.75,-406.92 347.75,-406.92 347.75,-402.96 351.71,-399 355.67,-399 355.67,-399 626.58,-399 626.58,-399 630.54,-399 634.5,-402.96 634.5,-406.92 634.5,-406.92 634.5,-414.83 634.5,-414.83 634.5,-418.79 630.54,-422.75 626.58,-422.75"/>
<text xml:space="preserve" text-anchor="middle" x="491.12" y="-405.45" font-family="Arial" font-size="14.00" fill="#c6c5fe">screens/CalendarScreen/CalendarScreen.tsx</text>
</g>
<!-- screens/CalendarScreen/index.ts&#45;&gt;screens/CalendarScreen/CalendarScreen.tsx -->
<g id="edge34" class="edge">
<title>screens/CalendarScreen/index.ts&#45;&gt;screens/CalendarScreen/CalendarScreen.tsx</title>
<path fill="none" stroke="#757575" d="M312.22,-397.13C320.05,-397.73 328.03,-398.35 336.06,-398.97"/>
<polygon fill="#757575" stroke="#757575" points="335.69,-402.45 345.93,-399.73 336.23,-395.47 335.69,-402.45"/>
</g>
<!-- screens/Homepage/Homepage.tsx -->
<g id="node41" class="node">
<title>screens/Homepage/Homepage.tsx</title>
<path fill="none" stroke="#c6c5fe" d="M595.83,-338.75C595.83,-338.75 386.42,-338.75 386.42,-338.75 382.46,-338.75 378.5,-334.79 378.5,-330.83 378.5,-330.83 378.5,-322.92 378.5,-322.92 378.5,-318.96 382.46,-315 386.42,-315 386.42,-315 595.83,-315 595.83,-315 599.79,-315 603.75,-318.96 603.75,-322.92 603.75,-322.92 603.75,-330.83 603.75,-330.83 603.75,-334.79 599.79,-338.75 595.83,-338.75"/>
<text xml:space="preserve" text-anchor="middle" x="491.12" y="-321.45" font-family="Arial" font-size="14.00" fill="#c6c5fe">screens/Homepage/Homepage.tsx</text>
</g>
<!-- screens/Homepage/index.ts&#45;&gt;screens/Homepage/Homepage.tsx -->
<g id="edge42" class="edge">
<title>screens/Homepage/index.ts&#45;&gt;screens/Homepage/Homepage.tsx</title>
<path fill="none" stroke="#757575" d="M296.65,-319.4C318.94,-320.26 343.17,-321.2 366.69,-322.11"/>
<polygon fill="#757575" stroke="#757575" points="366.53,-325.6 376.66,-322.49 366.8,-318.61 366.53,-325.6"/>
</g>
<!-- screens/Modal/Modal.tsx -->
<g id="node42" class="node">
<title>screens/Modal/Modal.tsx</title>
<path fill="none" stroke="#c6c5fe" d="M566.58,-243.75C566.58,-243.75 415.67,-243.75 415.67,-243.75 411.71,-243.75 407.75,-239.79 407.75,-235.83 407.75,-235.83 407.75,-227.92 407.75,-227.92 407.75,-223.96 411.71,-220 415.67,-220 415.67,-220 566.58,-220 566.58,-220 570.54,-220 574.5,-223.96 574.5,-227.92 574.5,-227.92 574.5,-235.83 574.5,-235.83 574.5,-239.79 570.54,-243.75 566.58,-243.75"/>
<text xml:space="preserve" text-anchor="middle" x="491.12" y="-226.45" font-family="Arial" font-size="14.00" fill="#c6c5fe">screens/Modal/Modal.tsx</text>
</g>
<!-- screens/Modal/index.ts&#45;&gt;screens/Modal/Modal.tsx -->
<g id="edge44" class="edge">
<title>screens/Modal/index.ts&#45;&gt;screens/Modal/Modal.tsx</title>
<path fill="none" stroke="#757575" d="M282.06,-247.22C317.14,-244.63 359.03,-241.54 396.01,-238.82"/>
<polygon fill="#757575" stroke="#757575" points="396.09,-242.32 405.8,-238.09 395.57,-235.34 396.09,-242.32"/>
</g>
<!-- screens/SubmitIdea/SubmitIdea.tsx -->
<g id="node43" class="node">
<title>screens/SubmitIdea/SubmitIdea.tsx</title>
<path fill="none" stroke="#c6c5fe" d="M598.08,-149.75C598.08,-149.75 384.17,-149.75 384.17,-149.75 380.21,-149.75 376.25,-145.79 376.25,-141.83 376.25,-141.83 376.25,-133.92 376.25,-133.92 376.25,-129.96 380.21,-126 384.17,-126 384.17,-126 598.08,-126 598.08,-126 602.04,-126 606,-129.96 606,-133.92 606,-133.92 606,-141.83 606,-141.83 606,-145.79 602.04,-149.75 598.08,-149.75"/>
<text xml:space="preserve" text-anchor="middle" x="491.12" y="-132.45" font-family="Arial" font-size="14.00" fill="#c6c5fe">screens/SubmitIdea/SubmitIdea.tsx</text>
</g>
<!-- screens/SubmitIdea/index.ts&#45;&gt;screens/SubmitIdea/SubmitIdea.tsx -->
<g id="edge51" class="edge">
<title>screens/SubmitIdea/index.ts&#45;&gt;screens/SubmitIdea/SubmitIdea.tsx</title>
<path fill="none" stroke="#757575" d="M272.86,-177.55C314.46,-169.95 368,-160.18 411.51,-152.23"/>
<polygon fill="#757575" stroke="#757575" points="411.94,-155.71 421.15,-150.47 410.68,-148.83 411.94,-155.71"/>
</g>
<!-- components/Accordion/Accordion.tsx -->
<g id="node6" class="node">
<title>components/Accordion/Accordion.tsx</title>
<path fill="none" stroke="#cfffac" d="M1209.08,-275.75C1209.08,-275.75 986.17,-275.75 986.17,-275.75 982.21,-275.75 978.25,-271.79 978.25,-267.83 978.25,-267.83 978.25,-259.92 978.25,-259.92 978.25,-255.96 982.21,-252 986.17,-252 986.17,-252 1209.08,-252 1209.08,-252 1213.04,-252 1217,-255.96 1217,-259.92 1217,-259.92 1217,-267.83 1217,-267.83 1217,-271.79 1213.04,-275.75 1209.08,-275.75"/>
<text xml:space="preserve" text-anchor="middle" x="1097.62" y="-258.45" font-family="Arial" font-size="14.00" fill="#cfffac">components/Accordion/Accordion.tsx</text>
</g>
<!-- components/Accordion/index.ts -->
<g id="node7" class="node">
<title>components/Accordion/index.ts</title>
<path fill="none" stroke="#c6c5fe" d="M883.71,-275.75C883.71,-275.75 695.29,-275.75 695.29,-275.75 691.33,-275.75 687.38,-271.79 687.38,-267.83 687.38,-267.83 687.38,-259.92 687.38,-259.92 687.38,-255.96 691.33,-252 695.29,-252 695.29,-252 883.71,-252 883.71,-252 887.67,-252 891.62,-255.96 891.62,-259.92 891.62,-259.92 891.62,-267.83 891.62,-267.83 891.62,-271.79 887.67,-275.75 883.71,-275.75"/>
<text xml:space="preserve" text-anchor="middle" x="789.5" y="-258.45" font-family="Arial" font-size="14.00" fill="#c6c5fe">components/Accordion/index.ts</text>
</g>
<!-- components/Accordion/index.ts&#45;&gt;components/Accordion/Accordion.tsx -->
<g id="edge5" class="edge">
<title>components/Accordion/index.ts&#45;&gt;components/Accordion/Accordion.tsx</title>
<path fill="none" stroke="#757575" d="M892.01,-263.88C915.86,-263.88 941.59,-263.88 966.5,-263.88"/>
<polygon fill="#757575" stroke="#757575" points="966.36,-267.38 976.36,-263.88 966.36,-260.38 966.36,-267.38"/>
</g>
<!-- components/BackIcon/BackIcon.tsx -->
<g id="node8" class="node">
<title>components/BackIcon/BackIcon.tsx</title>
<path fill="none" stroke="#cfffac" d="M1204.58,-191.75C1204.58,-191.75 990.67,-191.75 990.67,-191.75 986.71,-191.75 982.75,-187.79 982.75,-183.83 982.75,-183.83 982.75,-175.92 982.75,-175.92 982.75,-171.96 986.71,-168 990.67,-168 990.67,-168 1204.58,-168 1204.58,-168 1208.54,-168 1212.5,-171.96 1212.5,-175.92 1212.5,-175.92 1212.5,-183.83 1212.5,-183.83 1212.5,-187.79 1208.54,-191.75 1204.58,-191.75"/>
<text xml:space="preserve" text-anchor="middle" x="1097.62" y="-174.45" font-family="Arial" font-size="14.00" fill="#cfffac">components/BackIcon/BackIcon.tsx</text>
</g>
<!-- components/BackIcon/index.ts -->
<g id="node9" class="node">
<title>components/BackIcon/index.ts</title>
<path fill="none" stroke="#c6c5fe" d="M881.46,-191.75C881.46,-191.75 697.54,-191.75 697.54,-191.75 693.58,-191.75 689.62,-187.79 689.62,-183.83 689.62,-183.83 689.62,-175.92 689.62,-175.92 689.62,-171.96 693.58,-168 697.54,-168 697.54,-168 881.46,-168 881.46,-168 885.42,-168 889.38,-171.96 889.38,-175.92 889.38,-175.92 889.38,-183.83 889.38,-183.83 889.38,-187.79 885.42,-191.75 881.46,-191.75"/>
<text xml:space="preserve" text-anchor="middle" x="789.5" y="-174.45" font-family="Arial" font-size="14.00" fill="#c6c5fe">components/BackIcon/index.ts</text>
</g>
<!-- components/BackIcon/index.ts&#45;&gt;components/BackIcon/BackIcon.tsx -->
<g id="edge6" class="edge">
<title>components/BackIcon/index.ts&#45;&gt;components/BackIcon/BackIcon.tsx</title>
<path fill="none" stroke="#757575" d="M889.47,-179.88C915.49,-179.88 943.91,-179.88 971.12,-179.88"/>
<polygon fill="#757575" stroke="#757575" points="970.78,-183.38 980.78,-179.88 970.78,-176.38 970.78,-183.38"/>
</g>
<!-- components/BasicIcon/BasicIcon.tsx -->
<g id="node10" class="node">
<title>components/BasicIcon/BasicIcon.tsx</title>
<path fill="none" stroke="#cfffac" d="M1795.33,-275.75C1795.33,-275.75 1575.42,-275.75 1575.42,-275.75 1571.46,-275.75 1567.5,-271.79 1567.5,-267.83 1567.5,-267.83 1567.5,-259.92 1567.5,-259.92 1567.5,-255.96 1571.46,-252 1575.42,-252 1575.42,-252 1795.33,-252 1795.33,-252 1799.29,-252 1803.25,-255.96 1803.25,-259.92 1803.25,-259.92 1803.25,-267.83 1803.25,-267.83 1803.25,-271.79 1799.29,-275.75 1795.33,-275.75"/>
<text xml:space="preserve" text-anchor="middle" x="1685.38" y="-258.45" font-family="Arial" font-size="14.00" fill="#cfffac">components/BasicIcon/BasicIcon.tsx</text>
</g>
<!-- components/BasicIcon/index.ts -->
<g id="node11" class="node">
<title>components/BasicIcon/index.ts</title>
<path fill="none" stroke="#c6c5fe" d="M1492.08,-275.75C1492.08,-275.75 1305.17,-275.75 1305.17,-275.75 1301.21,-275.75 1297.25,-271.79 1297.25,-267.83 1297.25,-267.83 1297.25,-259.92 1297.25,-259.92 1297.25,-255.96 1301.21,-252 1305.17,-252 1305.17,-252 1492.08,-252 1492.08,-252 1496.04,-252 1500,-255.96 1500,-259.92 1500,-259.92 1500,-267.83 1500,-267.83 1500,-271.79 1496.04,-275.75 1492.08,-275.75"/>
<text xml:space="preserve" text-anchor="middle" x="1398.62" y="-258.45" font-family="Arial" font-size="14.00" fill="#c6c5fe">components/BasicIcon/index.ts</text>
</g>
<!-- components/BasicIcon/index.ts&#45;&gt;components/BasicIcon/BasicIcon.tsx -->
<g id="edge7" class="edge">
<title>components/BasicIcon/index.ts&#45;&gt;components/BasicIcon/BasicIcon.tsx</title>
<path fill="none" stroke="#757575" d="M1500.42,-263.88C1518.3,-263.88 1537.15,-263.88 1555.68,-263.88"/>
<polygon fill="#757575" stroke="#757575" points="1555.66,-267.38 1565.66,-263.88 1555.66,-260.38 1555.66,-267.38"/>
</g>
<!-- components/Button/Button.tsx -->
<g id="node12" class="node">
<title>components/Button/Button.tsx</title>
<path fill="none" stroke="#c6c5fe" d="M1188.08,-233.75C1188.08,-233.75 1007.17,-233.75 1007.17,-233.75 1003.21,-233.75 999.25,-229.79 999.25,-225.83 999.25,-225.83 999.25,-217.92 999.25,-217.92 999.25,-213.96 1003.21,-210 1007.17,-210 1007.17,-210 1188.08,-210 1188.08,-210 1192.04,-210 1196,-213.96 1196,-217.92 1196,-217.92 1196,-225.83 1196,-225.83 1196,-229.79 1192.04,-233.75 1188.08,-233.75"/>
<text xml:space="preserve" text-anchor="middle" x="1097.62" y="-216.45" font-family="Arial" font-size="14.00" fill="#c6c5fe">components/Button/Button.tsx</text>
</g>
<!-- components/Button/Button.tsx&#45;&gt;components/BasicIcon/index.ts -->
<g id="edge8" class="edge">
<title>components/Button/Button.tsx&#45;&gt;components/BasicIcon/index.ts</title>
<path fill="none" stroke="#757575" d="M1188.73,-234.24C1209.13,-237.06 1230.68,-240.06 1250.75,-242.88 1266.81,-245.13 1283.86,-247.55 1300.43,-249.91"/>
<polygon fill="#757575" stroke="#757575" points="1299.92,-253.37 1310.32,-251.32 1300.91,-246.44 1299.92,-253.37"/>
</g>
<!-- components/Button/index.ts -->
<g id="node13" class="node">
<title>components/Button/index.ts</title>
<path fill="none" stroke="#c6c5fe" d="M873.21,-233.75C873.21,-233.75 705.79,-233.75 705.79,-233.75 701.83,-233.75 697.88,-229.79 697.88,-225.83 697.88,-225.83 697.88,-217.92 697.88,-217.92 697.88,-213.96 701.83,-210 705.79,-210 705.79,-210 873.21,-210 873.21,-210 877.17,-210 881.12,-213.96 881.12,-217.92 881.12,-217.92 881.12,-225.83 881.12,-225.83 881.12,-229.79 877.17,-233.75 873.21,-233.75"/>
<text xml:space="preserve" text-anchor="middle" x="789.5" y="-216.45" font-family="Arial" font-size="14.00" fill="#c6c5fe">components/Button/index.ts</text>
</g>
<!-- components/Button/index.ts&#45;&gt;components/Button/Button.tsx -->
<g id="edge9" class="edge">
<title>components/Button/index.ts&#45;&gt;components/Button/Button.tsx</title>
<path fill="none" stroke="#757575" d="M881.52,-221.88C914.84,-221.88 952.87,-221.88 987.61,-221.88"/>
<polygon fill="#757575" stroke="#757575" points="987.24,-225.38 997.24,-221.88 987.24,-218.38 987.24,-225.38"/>
</g>
<!-- components/Calendar/Calendar.tsx -->
<g id="node14" class="node">
<title>components/Calendar/Calendar.tsx</title>
<path fill="none" stroke="#c6c5fe" d="M1203.46,-611.75C1203.46,-611.75 991.79,-611.75 991.79,-611.75 987.83,-611.75 983.88,-607.79 983.88,-603.83 983.88,-603.83 983.88,-595.92 983.88,-595.92 983.88,-591.96 987.83,-588 991.79,-588 991.79,-588 1203.46,-588 1203.46,-588 1207.42,-588 1211.38,-591.96 1211.38,-595.92 1211.38,-595.92 1211.38,-603.83 1211.38,-603.83 1211.38,-607.79 1207.42,-611.75 1203.46,-611.75"/>
<text xml:space="preserve" text-anchor="middle" x="1097.62" y="-594.45" font-family="Arial" font-size="14.00" fill="#c6c5fe">components/Calendar/Calendar.tsx</text>
</g>
<!-- components/ToogleSwitch/index.ts -->
<g id="node15" class="node">
<title>components/ToogleSwitch/index.ts</title>
<path fill="none" stroke="#c6c5fe" d="M1502.58,-611.75C1502.58,-611.75 1294.67,-611.75 1294.67,-611.75 1290.71,-611.75 1286.75,-607.79 1286.75,-603.83 1286.75,-603.83 1286.75,-595.92 1286.75,-595.92 1286.75,-591.96 1290.71,-588 1294.67,-588 1294.67,-588 1502.58,-588 1502.58,-588 1506.54,-588 1510.5,-591.96 1510.5,-595.92 1510.5,-595.92 1510.5,-603.83 1510.5,-603.83 1510.5,-607.79 1506.54,-611.75 1502.58,-611.75"/>
<text xml:space="preserve" text-anchor="middle" x="1398.62" y="-594.45" font-family="Arial" font-size="14.00" fill="#c6c5fe">components/ToogleSwitch/index.ts</text>
</g>
<!-- components/Calendar/Calendar.tsx&#45;&gt;components/ToogleSwitch/index.ts -->
<g id="edge10" class="edge">
<title>components/Calendar/Calendar.tsx&#45;&gt;components/ToogleSwitch/index.ts</title>
<path fill="none" stroke="#757575" d="M1211.66,-599.88C1232.41,-599.88 1254.16,-599.88 1275.16,-599.88"/>
<polygon fill="#757575" stroke="#757575" points="1274.89,-603.38 1284.89,-599.88 1274.89,-596.38 1274.89,-603.38"/>
</g>
<!-- components/ToogleSwitch/ToogleSwitch.tsx -->
<g id="node37" class="node">
<title>components/ToogleSwitch/ToogleSwitch.tsx</title>
<path fill="none" stroke="#cfffac" d="M1816.33,-611.75C1816.33,-611.75 1554.42,-611.75 1554.42,-611.75 1550.46,-611.75 1546.5,-607.79 1546.5,-603.83 1546.5,-603.83 1546.5,-595.92 1546.5,-595.92 1546.5,-591.96 1550.46,-588 1554.42,-588 1554.42,-588 1816.33,-588 1816.33,-588 1820.29,-588 1824.25,-591.96 1824.25,-595.92 1824.25,-595.92 1824.25,-603.83 1824.25,-603.83 1824.25,-607.79 1820.29,-611.75 1816.33,-611.75"/>
<text xml:space="preserve" text-anchor="middle" x="1685.38" y="-594.45" font-family="Arial" font-size="14.00" fill="#cfffac">components/ToogleSwitch/ToogleSwitch.tsx</text>
</g>
<!-- components/ToogleSwitch/index.ts&#45;&gt;components/ToogleSwitch/ToogleSwitch.tsx -->
<g id="edge23" class="edge">
<title>components/ToogleSwitch/index.ts&#45;&gt;components/ToogleSwitch/ToogleSwitch.tsx</title>
<path fill="none" stroke="#757575" d="M1510.94,-599.88C1518.79,-599.88 1526.76,-599.88 1534.77,-599.88"/>
<polygon fill="#757575" stroke="#757575" points="1534.59,-603.38 1544.59,-599.88 1534.59,-596.38 1534.59,-603.38"/>
</g>
<!-- components/Calendar/index.ts -->
<g id="node16" class="node">
<title>components/Calendar/index.ts</title>
<path fill="none" stroke="#c6c5fe" d="M881.08,-611.75C881.08,-611.75 697.92,-611.75 697.92,-611.75 693.96,-611.75 690,-607.79 690,-603.83 690,-603.83 690,-595.92 690,-595.92 690,-591.96 693.96,-588 697.92,-588 697.92,-588 881.08,-588 881.08,-588 885.04,-588 889,-591.96 889,-595.92 889,-595.92 889,-603.83 889,-603.83 889,-607.79 885.04,-611.75 881.08,-611.75"/>
<text xml:space="preserve" text-anchor="middle" x="789.5" y="-594.45" font-family="Arial" font-size="14.00" fill="#c6c5fe">components/Calendar/index.ts</text>
</g>
<!-- components/Calendar/index.ts&#45;&gt;components/Calendar/Calendar.tsx -->
<g id="edge11" class="edge">
<title>components/Calendar/index.ts&#45;&gt;components/Calendar/Calendar.tsx</title>
<path fill="none" stroke="#757575" d="M889.47,-599.88C915.87,-599.88 944.75,-599.88 972.33,-599.88"/>
<polygon fill="#757575" stroke="#757575" points="972.13,-603.38 982.13,-599.88 972.13,-596.38 972.13,-603.38"/>
</g>
<!-- components/ChallengeIcon/ChallengeIcon.tsx -->
<g id="node17" class="node">
<title>components/ChallengeIcon/ChallengeIcon.tsx</title>
<path fill="none" stroke="#cfffac" d="M1235.33,-359.75C1235.33,-359.75 959.92,-359.75 959.92,-359.75 955.96,-359.75 952,-355.79 952,-351.83 952,-351.83 952,-343.92 952,-343.92 952,-339.96 955.96,-336 959.92,-336 959.92,-336 1235.33,-336 1235.33,-336 1239.29,-336 1243.25,-339.96 1243.25,-343.92 1243.25,-343.92 1243.25,-351.83 1243.25,-351.83 1243.25,-355.79 1239.29,-359.75 1235.33,-359.75"/>
<text xml:space="preserve" text-anchor="middle" x="1097.62" y="-342.45" font-family="Arial" font-size="14.00" fill="#cfffac">components/ChallengeIcon/ChallengeIcon.tsx</text>
</g>
<!-- components/ChallengeIcon/index.ts -->
<g id="node18" class="node">
<title>components/ChallengeIcon/index.ts</title>
<path fill="none" stroke="#c6c5fe" d="M896.83,-359.75C896.83,-359.75 682.17,-359.75 682.17,-359.75 678.21,-359.75 674.25,-355.79 674.25,-351.83 674.25,-351.83 674.25,-343.92 674.25,-343.92 674.25,-339.96 678.21,-336 682.17,-336 682.17,-336 896.83,-336 896.83,-336 900.79,-336 904.75,-339.96 904.75,-343.92 904.75,-343.92 904.75,-351.83 904.75,-351.83 904.75,-355.79 900.79,-359.75 896.83,-359.75"/>
<text xml:space="preserve" text-anchor="middle" x="789.5" y="-342.45" font-family="Arial" font-size="14.00" fill="#c6c5fe">components/ChallengeIcon/index.ts</text>
</g>
<!-- components/ChallengeIcon/index.ts&#45;&gt;components/ChallengeIcon/ChallengeIcon.tsx -->
<g id="edge12" class="edge">
<title>components/ChallengeIcon/index.ts&#45;&gt;components/ChallengeIcon/ChallengeIcon.tsx</title>
<path fill="none" stroke="#757575" d="M904.92,-347.88C916.44,-347.88 928.27,-347.88 940.13,-347.88"/>
<polygon fill="#757575" stroke="#757575" points="939.99,-351.38 949.99,-347.88 939.99,-344.38 939.99,-351.38"/>
</g>
<!-- components/Checkbox/Checkbox.tsx -->
<g id="node19" class="node">
<title>components/Checkbox/Checkbox.tsx</title>
<path fill="none" stroke="#cfffac" d="M1209.08,-149.75C1209.08,-149.75 986.17,-149.75 986.17,-149.75 982.21,-149.75 978.25,-145.79 978.25,-141.83 978.25,-141.83 978.25,-133.92 978.25,-133.92 978.25,-129.96 982.21,-126 986.17,-126 986.17,-126 1209.08,-126 1209.08,-126 1213.04,-126 1217,-129.96 1217,-133.92 1217,-133.92 1217,-141.83 1217,-141.83 1217,-145.79 1213.04,-149.75 1209.08,-149.75"/>
<text xml:space="preserve" text-anchor="middle" x="1097.62" y="-132.45" font-family="Arial" font-size="14.00" fill="#cfffac">components/Checkbox/Checkbox.tsx</text>
</g>
<!-- components/Checkbox/index.ts -->
<g id="node20" class="node">
<title>components/Checkbox/index.ts</title>
<path fill="none" stroke="#c6c5fe" d="M883.71,-149.75C883.71,-149.75 695.29,-149.75 695.29,-149.75 691.33,-149.75 687.38,-145.79 687.38,-141.83 687.38,-141.83 687.38,-133.92 687.38,-133.92 687.38,-129.96 691.33,-126 695.29,-126 695.29,-126 883.71,-126 883.71,-126 887.67,-126 891.62,-129.96 891.62,-133.92 891.62,-133.92 891.62,-141.83 891.62,-141.83 891.62,-145.79 887.67,-149.75 883.71,-149.75"/>
<text xml:space="preserve" text-anchor="middle" x="789.5" y="-132.45" font-family="Arial" font-size="14.00" fill="#c6c5fe">components/Checkbox/index.ts</text>
</g>
<!-- components/Checkbox/index.ts&#45;&gt;components/Checkbox/Checkbox.tsx -->
<g id="edge13" class="edge">
<title>components/Checkbox/index.ts&#45;&gt;components/Checkbox/Checkbox.tsx</title>
<path fill="none" stroke="#757575" d="M892.01,-137.88C915.86,-137.88 941.59,-137.88 966.5,-137.88"/>
<polygon fill="#757575" stroke="#757575" points="966.36,-141.38 976.36,-137.88 966.36,-134.38 966.36,-141.38"/>
</g>
<!-- components/Infobox/Infobox.tsx -->
<g id="node21" class="node">
<title>components/Infobox/Infobox.tsx</title>
<path fill="none" stroke="#cfffac" d="M1193.33,-569.75C1193.33,-569.75 1001.92,-569.75 1001.92,-569.75 997.96,-569.75 994,-565.79 994,-561.83 994,-561.83 994,-553.92 994,-553.92 994,-549.96 997.96,-546 1001.92,-546 1001.92,-546 1193.33,-546 1193.33,-546 1197.29,-546 1201.25,-549.96 1201.25,-553.92 1201.25,-553.92 1201.25,-561.83 1201.25,-561.83 1201.25,-565.79 1197.29,-569.75 1193.33,-569.75"/>
<text xml:space="preserve" text-anchor="middle" x="1097.62" y="-552.45" font-family="Arial" font-size="14.00" fill="#cfffac">components/Infobox/Infobox.tsx</text>
</g>
<!-- components/Infobox/index.ts -->
<g id="node22" class="node">
<title>components/Infobox/index.ts</title>
<path fill="none" stroke="#c6c5fe" d="M875.83,-569.75C875.83,-569.75 703.17,-569.75 703.17,-569.75 699.21,-569.75 695.25,-565.79 695.25,-561.83 695.25,-561.83 695.25,-553.92 695.25,-553.92 695.25,-549.96 699.21,-546 703.17,-546 703.17,-546 875.83,-546 875.83,-546 879.79,-546 883.75,-549.96 883.75,-553.92 883.75,-553.92 883.75,-561.83 883.75,-561.83 883.75,-565.79 879.79,-569.75 875.83,-569.75"/>
<text xml:space="preserve" text-anchor="middle" x="789.5" y="-552.45" font-family="Arial" font-size="14.00" fill="#c6c5fe">components/Infobox/index.ts</text>
</g>
<!-- components/Infobox/index.ts&#45;&gt;components/Infobox/Infobox.tsx -->
<g id="edge14" class="edge">
<title>components/Infobox/index.ts&#45;&gt;components/Infobox/Infobox.tsx</title>
<path fill="none" stroke="#757575" d="M884.01,-557.88C915,-557.88 949.84,-557.88 982.21,-557.88"/>
<polygon fill="#757575" stroke="#757575" points="982.04,-561.38 992.04,-557.88 982.04,-554.38 982.04,-561.38"/>
</g>
<!-- components/InformationIcon/InformationIcon.tsx -->
<g id="node23" class="node">
<title>components/InformationIcon/InformationIcon.tsx</title>
<path fill="none" stroke="#cfffac" d="M1242.83,-527.75C1242.83,-527.75 952.42,-527.75 952.42,-527.75 948.46,-527.75 944.5,-523.79 944.5,-519.83 944.5,-519.83 944.5,-511.92 944.5,-511.92 944.5,-507.96 948.46,-504 952.42,-504 952.42,-504 1242.83,-504 1242.83,-504 1246.79,-504 1250.75,-507.96 1250.75,-511.92 1250.75,-511.92 1250.75,-519.83 1250.75,-519.83 1250.75,-523.79 1246.79,-527.75 1242.83,-527.75"/>
<text xml:space="preserve" text-anchor="middle" x="1097.62" y="-510.45" font-family="Arial" font-size="14.00" fill="#cfffac">components/InformationIcon/InformationIcon.tsx</text>
</g>
<!-- components/InformationIcon/index.ts -->
<g id="node24" class="node">
<title>components/InformationIcon/index.ts</title>
<path fill="none" stroke="#c6c5fe" d="M900.58,-527.75C900.58,-527.75 678.42,-527.75 678.42,-527.75 674.46,-527.75 670.5,-523.79 670.5,-519.83 670.5,-519.83 670.5,-511.92 670.5,-511.92 670.5,-507.96 674.46,-504 678.42,-504 678.42,-504 900.58,-504 900.58,-504 904.54,-504 908.5,-507.96 908.5,-511.92 908.5,-511.92 908.5,-519.83 908.5,-519.83 908.5,-523.79 904.54,-527.75 900.58,-527.75"/>
<text xml:space="preserve" text-anchor="middle" x="789.5" y="-510.45" font-family="Arial" font-size="14.00" fill="#c6c5fe">components/InformationIcon/index.ts</text>
</g>
<!-- components/InformationIcon/index.ts&#45;&gt;components/InformationIcon/InformationIcon.tsx -->
<g id="edge15" class="edge">
<title>components/InformationIcon/index.ts&#45;&gt;components/InformationIcon/InformationIcon.tsx</title>
<path fill="none" stroke="#757575" d="M908.86,-515.88C916.75,-515.88 924.77,-515.88 932.83,-515.88"/>
<polygon fill="#757575" stroke="#757575" points="932.73,-519.38 942.73,-515.88 932.73,-512.38 932.73,-519.38"/>
</g>
<!-- components/InitiativeCard/InitiativeCard.tsx -->
<g id="node25" class="node">
<title>components/InitiativeCard/InitiativeCard.tsx</title>
<path fill="none" stroke="#c6c5fe" d="M1227.83,-317.75C1227.83,-317.75 967.42,-317.75 967.42,-317.75 963.46,-317.75 959.5,-313.79 959.5,-309.83 959.5,-309.83 959.5,-301.92 959.5,-301.92 959.5,-297.96 963.46,-294 967.42,-294 967.42,-294 1227.83,-294 1227.83,-294 1231.79,-294 1235.75,-297.96 1235.75,-301.92 1235.75,-301.92 1235.75,-309.83 1235.75,-309.83 1235.75,-313.79 1231.79,-317.75 1227.83,-317.75"/>
<text xml:space="preserve" text-anchor="middle" x="1097.62" y="-300.45" font-family="Arial" font-size="14.00" fill="#c6c5fe">components/InitiativeCard/InitiativeCard.tsx</text>
</g>
<!-- components/InitiativeCard/InitiativeCard.tsx&#45;&gt;components/BasicIcon/index.ts -->
<g id="edge16" class="edge">
<title>components/InitiativeCard/InitiativeCard.tsx&#45;&gt;components/BasicIcon/index.ts</title>
<path fill="none" stroke="#757575" d="M1188.73,-293.51C1209.13,-290.69 1230.68,-287.69 1250.75,-284.88 1266.81,-282.62 1283.86,-280.2 1300.43,-277.84"/>
<polygon fill="#757575" stroke="#757575" points="1300.91,-281.31 1310.32,-276.43 1299.92,-274.38 1300.91,-281.31"/>
</g>
<!-- components/InitiativeCard/index.ts -->
<g id="node26" class="node">
<title>components/InitiativeCard/index.ts</title>
<path fill="none" stroke="#c6c5fe" d="M893.08,-317.75C893.08,-317.75 685.92,-317.75 685.92,-317.75 681.96,-317.75 678,-313.79 678,-309.83 678,-309.83 678,-301.92 678,-301.92 678,-297.96 681.96,-294 685.92,-294 685.92,-294 893.08,-294 893.08,-294 897.04,-294 901,-297.96 901,-301.92 901,-301.92 901,-309.83 901,-309.83 901,-313.79 897.04,-317.75 893.08,-317.75"/>
<text xml:space="preserve" text-anchor="middle" x="789.5" y="-300.45" font-family="Arial" font-size="14.00" fill="#c6c5fe">components/InitiativeCard/index.ts</text>
</g>
<!-- components/InitiativeCard/index.ts&#45;&gt;components/InitiativeCard/InitiativeCard.tsx -->
<g id="edge17" class="edge">
<title>components/InitiativeCard/index.ts&#45;&gt;components/InitiativeCard/InitiativeCard.tsx</title>
<path fill="none" stroke="#757575" d="M901.45,-305.88C916.53,-305.88 932.2,-305.88 947.81,-305.88"/>
<polygon fill="#757575" stroke="#757575" points="947.64,-309.38 957.64,-305.88 947.64,-302.38 947.64,-309.38"/>
</g>
<!-- components/OfferIcon/OfferIcon.tsx -->
<g id="node27" class="node">
<title>components/OfferIcon/OfferIcon.tsx</title>
<path fill="none" stroke="#cfffac" d="M1205.33,-401.75C1205.33,-401.75 989.92,-401.75 989.92,-401.75 985.96,-401.75 982,-397.79 982,-393.83 982,-393.83 982,-385.92 982,-385.92 982,-381.96 985.96,-378 989.92,-378 989.92,-378 1205.33,-378 1205.33,-378 1209.29,-378 1213.25,-381.96 1213.25,-385.92 1213.25,-385.92 1213.25,-393.83 1213.25,-393.83 1213.25,-397.79 1209.29,-401.75 1205.33,-401.75"/>
<text xml:space="preserve" text-anchor="middle" x="1097.62" y="-384.45" font-family="Arial" font-size="14.00" fill="#cfffac">components/OfferIcon/OfferIcon.tsx</text>
</g>
<!-- components/OfferIcon/index.ts -->
<g id="node28" class="node">
<title>components/OfferIcon/index.ts</title>
<path fill="none" stroke="#c6c5fe" d="M881.83,-401.75C881.83,-401.75 697.17,-401.75 697.17,-401.75 693.21,-401.75 689.25,-397.79 689.25,-393.83 689.25,-393.83 689.25,-385.92 689.25,-385.92 689.25,-381.96 693.21,-378 697.17,-378 697.17,-378 881.83,-378 881.83,-378 885.79,-378 889.75,-381.96 889.75,-385.92 889.75,-385.92 889.75,-393.83 889.75,-393.83 889.75,-397.79 885.79,-401.75 881.83,-401.75"/>
<text xml:space="preserve" text-anchor="middle" x="789.5" y="-384.45" font-family="Arial" font-size="14.00" fill="#c6c5fe">components/OfferIcon/index.ts</text>
</g>
<!-- components/OfferIcon/index.ts&#45;&gt;components/OfferIcon/OfferIcon.tsx -->
<g id="edge18" class="edge">
<title>components/OfferIcon/index.ts&#45;&gt;components/OfferIcon/OfferIcon.tsx</title>
<path fill="none" stroke="#757575" d="M889.89,-389.88C915.48,-389.88 943.36,-389.88 970.12,-389.88"/>
<polygon fill="#757575" stroke="#757575" points="969.99,-393.38 979.99,-389.88 969.99,-386.38 969.99,-393.38"/>
</g>
<!-- components/Select/Select.tsx -->
<g id="node29" class="node">
<title>components/Select/Select.tsx</title>
<path fill="none" stroke="#cfffac" d="M1186.58,-107.75C1186.58,-107.75 1008.67,-107.75 1008.67,-107.75 1004.71,-107.75 1000.75,-103.79 1000.75,-99.83 1000.75,-99.83 1000.75,-91.92 1000.75,-91.92 1000.75,-87.96 1004.71,-84 1008.67,-84 1008.67,-84 1186.58,-84 1186.58,-84 1190.54,-84 1194.5,-87.96 1194.5,-91.92 1194.5,-91.92 1194.5,-99.83 1194.5,-99.83 1194.5,-103.79 1190.54,-107.75 1186.58,-107.75"/>
<text xml:space="preserve" text-anchor="middle" x="1097.62" y="-90.45" font-family="Arial" font-size="14.00" fill="#cfffac">components/Select/Select.tsx</text>
</g>
<!-- components/Select/index.ts -->
<g id="node30" class="node">
<title>components/Select/index.ts</title>
<path fill="none" stroke="#c6c5fe" d="M872.46,-107.75C872.46,-107.75 706.54,-107.75 706.54,-107.75 702.58,-107.75 698.62,-103.79 698.62,-99.83 698.62,-99.83 698.62,-91.92 698.62,-91.92 698.62,-87.96 702.58,-84 706.54,-84 706.54,-84 872.46,-84 872.46,-84 876.42,-84 880.38,-87.96 880.38,-91.92 880.38,-91.92 880.38,-99.83 880.38,-99.83 880.38,-103.79 876.42,-107.75 872.46,-107.75"/>
<text xml:space="preserve" text-anchor="middle" x="789.5" y="-90.45" font-family="Arial" font-size="14.00" fill="#c6c5fe">components/Select/index.ts</text>
</g>
<!-- components/Select/index.ts&#45;&gt;components/Select/Select.tsx -->
<g id="edge19" class="edge">
<title>components/Select/index.ts&#45;&gt;components/Select/Select.tsx</title>
<path fill="none" stroke="#757575" d="M880.69,-95.88C914.67,-95.88 953.65,-95.88 989.06,-95.88"/>
<polygon fill="#757575" stroke="#757575" points="988.9,-99.38 998.9,-95.88 988.9,-92.38 988.9,-99.38"/>
</g>
<!-- components/SparkleIcon/SparkleIcon.tsx -->
<g id="node31" class="node">
<title>components/SparkleIcon/SparkleIcon.tsx</title>
<path fill="none" stroke="#cfffac" d="M1220.33,-485.75C1220.33,-485.75 974.92,-485.75 974.92,-485.75 970.96,-485.75 967,-481.79 967,-477.83 967,-477.83 967,-469.92 967,-469.92 967,-465.96 970.96,-462 974.92,-462 974.92,-462 1220.33,-462 1220.33,-462 1224.29,-462 1228.25,-465.96 1228.25,-469.92 1228.25,-469.92 1228.25,-477.83 1228.25,-477.83 1228.25,-481.79 1224.29,-485.75 1220.33,-485.75"/>
<text xml:space="preserve" text-anchor="middle" x="1097.62" y="-468.45" font-family="Arial" font-size="14.00" fill="#cfffac">components/SparkleIcon/SparkleIcon.tsx</text>
</g>
<!-- components/SparkleIcon/index.ts -->
<g id="node32" class="node">
<title>components/SparkleIcon/index.ts</title>
<path fill="none" stroke="#c6c5fe" d="M889.33,-485.75C889.33,-485.75 689.67,-485.75 689.67,-485.75 685.71,-485.75 681.75,-481.79 681.75,-477.83 681.75,-477.83 681.75,-469.92 681.75,-469.92 681.75,-465.96 685.71,-462 689.67,-462 689.67,-462 889.33,-462 889.33,-462 893.29,-462 897.25,-465.96 897.25,-469.92 897.25,-469.92 897.25,-477.83 897.25,-477.83 897.25,-481.79 893.29,-485.75 889.33,-485.75"/>
<text xml:space="preserve" text-anchor="middle" x="789.5" y="-468.45" font-family="Arial" font-size="14.00" fill="#c6c5fe">components/SparkleIcon/index.ts</text>
</g>
<!-- components/SparkleIcon/index.ts&#45;&gt;components/SparkleIcon/SparkleIcon.tsx -->
<g id="edge20" class="edge">
<title>components/SparkleIcon/index.ts&#45;&gt;components/SparkleIcon/SparkleIcon.tsx</title>
<path fill="none" stroke="#757575" d="M897.57,-473.88C916.23,-473.88 935.9,-473.88 955.32,-473.88"/>
<polygon fill="#757575" stroke="#757575" points="955.2,-477.38 965.2,-473.88 955.2,-470.38 955.2,-477.38"/>
</g>
<!-- components/TextArea/TextArea.tsx -->
<g id="node33" class="node">
<title>components/TextArea/TextArea.tsx</title>
<path fill="none" stroke="#cfffac" d="M1202.33,-65.75C1202.33,-65.75 992.92,-65.75 992.92,-65.75 988.96,-65.75 985,-61.79 985,-57.83 985,-57.83 985,-49.92 985,-49.92 985,-45.96 988.96,-42 992.92,-42 992.92,-42 1202.33,-42 1202.33,-42 1206.29,-42 1210.25,-45.96 1210.25,-49.92 1210.25,-49.92 1210.25,-57.83 1210.25,-57.83 1210.25,-61.79 1206.29,-65.75 1202.33,-65.75"/>
<text xml:space="preserve" text-anchor="middle" x="1097.62" y="-48.45" font-family="Arial" font-size="14.00" fill="#cfffac">components/TextArea/TextArea.tsx</text>
</g>
<!-- components/TextArea/index.ts -->
<g id="node34" class="node">
<title>components/TextArea/index.ts</title>
<path fill="none" stroke="#c6c5fe" d="M880.33,-65.75C880.33,-65.75 698.67,-65.75 698.67,-65.75 694.71,-65.75 690.75,-61.79 690.75,-57.83 690.75,-57.83 690.75,-49.92 690.75,-49.92 690.75,-45.96 694.71,-42 698.67,-42 698.67,-42 880.33,-42 880.33,-42 884.29,-42 888.25,-45.96 888.25,-49.92 888.25,-49.92 888.25,-57.83 888.25,-57.83 888.25,-61.79 884.29,-65.75 880.33,-65.75"/>
<text xml:space="preserve" text-anchor="middle" x="789.5" y="-48.45" font-family="Arial" font-size="14.00" fill="#c6c5fe">components/TextArea/index.ts</text>
</g>
<!-- components/TextArea/index.ts&#45;&gt;components/TextArea/TextArea.tsx -->
<g id="edge21" class="edge">
<title>components/TextArea/index.ts&#45;&gt;components/TextArea/TextArea.tsx</title>
<path fill="none" stroke="#757575" d="M888.62,-53.88C915.64,-53.88 945.29,-53.88 973.53,-53.88"/>
<polygon fill="#757575" stroke="#757575" points="973.17,-57.38 983.17,-53.88 973.17,-50.38 973.17,-57.38"/>
</g>
<!-- components/TextField/TextField.tsx -->
<g id="node35" class="node">
<title>components/TextField/TextField.tsx</title>
<path fill="none" stroke="#cfffac" d="M1203.08,-23.75C1203.08,-23.75 992.17,-23.75 992.17,-23.75 988.21,-23.75 984.25,-19.79 984.25,-15.83 984.25,-15.83 984.25,-7.92 984.25,-7.92 984.25,-3.96 988.21,0 992.17,0 992.17,0 1203.08,0 1203.08,0 1207.04,0 1211,-3.96 1211,-7.92 1211,-7.92 1211,-15.83 1211,-15.83 1211,-19.79 1207.04,-23.75 1203.08,-23.75"/>
<text xml:space="preserve" text-anchor="middle" x="1097.62" y="-6.45" font-family="Arial" font-size="14.00" fill="#cfffac">components/TextField/TextField.tsx</text>
</g>
<!-- components/TextField/index.ts -->
<g id="node36" class="node">
<title>components/TextField/index.ts</title>
<path fill="none" stroke="#c6c5fe" d="M880.71,-23.75C880.71,-23.75 698.29,-23.75 698.29,-23.75 694.33,-23.75 690.38,-19.79 690.38,-15.83 690.38,-15.83 690.38,-7.92 690.38,-7.92 690.38,-3.96 694.33,0 698.29,0 698.29,0 880.71,0 880.71,0 884.67,0 888.62,-3.96 888.62,-7.92 888.62,-7.92 888.62,-15.83 888.62,-15.83 888.62,-19.79 884.67,-23.75 880.71,-23.75"/>
<text xml:space="preserve" text-anchor="middle" x="789.5" y="-6.45" font-family="Arial" font-size="14.00" fill="#c6c5fe">components/TextField/index.ts</text>
</g>
<!-- components/TextField/index.ts&#45;&gt;components/TextField/TextField.tsx -->
<g id="edge22" class="edge">
<title>components/TextField/index.ts&#45;&gt;components/TextField/TextField.tsx</title>
<path fill="none" stroke="#757575" d="M889.04,-11.88C915.62,-11.88 944.72,-11.88 972.5,-11.88"/>
<polygon fill="#757575" stroke="#757575" points="972.38,-15.38 982.38,-11.88 972.38,-8.38 972.38,-15.38"/>
</g>
<!-- components/WorkshopIcon/WorkshopIcon.tsx -->
<g id="node38" class="node">
<title>components/WorkshopIcon/WorkshopIcon.tsx</title>
<path fill="none" stroke="#cfffac" d="M1235.33,-443.75C1235.33,-443.75 959.92,-443.75 959.92,-443.75 955.96,-443.75 952,-439.79 952,-435.83 952,-435.83 952,-427.92 952,-427.92 952,-423.96 955.96,-420 959.92,-420 959.92,-420 1235.33,-420 1235.33,-420 1239.29,-420 1243.25,-423.96 1243.25,-427.92 1243.25,-427.92 1243.25,-435.83 1243.25,-435.83 1243.25,-439.79 1239.29,-443.75 1235.33,-443.75"/>
<text xml:space="preserve" text-anchor="middle" x="1097.62" y="-426.45" font-family="Arial" font-size="14.00" fill="#cfffac">components/WorkshopIcon/WorkshopIcon.tsx</text>
</g>
<!-- components/WorkshopIcon/index.ts -->
<g id="node39" class="node">
<title>components/WorkshopIcon/index.ts</title>
<path fill="none" stroke="#c6c5fe" d="M896.83,-443.75C896.83,-443.75 682.17,-443.75 682.17,-443.75 678.21,-443.75 674.25,-439.79 674.25,-435.83 674.25,-435.83 674.25,-427.92 674.25,-427.92 674.25,-423.96 678.21,-420 682.17,-420 682.17,-420 896.83,-420 896.83,-420 900.79,-420 904.75,-423.96 904.75,-427.92 904.75,-427.92 904.75,-435.83 904.75,-435.83 904.75,-439.79 900.79,-443.75 896.83,-443.75"/>
<text xml:space="preserve" text-anchor="middle" x="789.5" y="-426.45" font-family="Arial" font-size="14.00" fill="#c6c5fe">components/WorkshopIcon/index.ts</text>
</g>
<!-- components/WorkshopIcon/index.ts&#45;&gt;components/WorkshopIcon/WorkshopIcon.tsx -->
<g id="edge24" class="edge">
<title>components/WorkshopIcon/index.ts&#45;&gt;components/WorkshopIcon/WorkshopIcon.tsx</title>
<path fill="none" stroke="#757575" d="M904.92,-431.88C916.44,-431.88 928.27,-431.88 940.13,-431.88"/>
<polygon fill="#757575" stroke="#757575" points="939.99,-435.38 949.99,-431.88 939.99,-428.38 939.99,-435.38"/>
</g>
<!-- screens/CalendarScreen/CalendarScreen.tsx&#45;&gt;components/Button/index.ts -->
<g id="edge25" class="edge">
<title>screens/CalendarScreen/CalendarScreen.tsx&#45;&gt;components/Button/index.ts</title>
<path fill="none" stroke="#757575" d="M545.42,-398.61C575.24,-389.24 611.02,-373.47 634.5,-347.88 667.85,-311.52 633.03,-274.97 670.5,-242.88 675.56,-238.54 681.2,-234.96 687.2,-232.01"/>
<polygon fill="#757575" stroke="#757575" points="688.34,-235.33 696.2,-228.22 685.63,-228.88 688.34,-235.33"/>
</g>
<!-- screens/CalendarScreen/CalendarScreen.tsx&#45;&gt;components/Calendar/index.ts -->
<g id="edge26" class="edge">
<title>screens/CalendarScreen/CalendarScreen.tsx&#45;&gt;components/Calendar/index.ts</title>
<path fill="none" stroke="#757575" d="M500.92,-423.09C524.41,-454.72 592.2,-539.52 670.5,-578.88 674,-580.63 677.62,-582.25 681.33,-583.73"/>
<polygon fill="#757575" stroke="#757575" points="679.96,-586.95 690.55,-587.05 682.33,-580.37 679.96,-586.95"/>
</g>
<!-- screens/CalendarScreen/CalendarScreen.tsx&#45;&gt;components/ChallengeIcon/index.ts -->
<g id="edge27" class="edge">
<title>screens/CalendarScreen/CalendarScreen.tsx&#45;&gt;components/ChallengeIcon/index.ts</title>
<path fill="none" stroke="#757575" d="M541.18,-398.56C576.92,-389.77 626.57,-377.95 670.5,-368.88 681.35,-366.63 692.79,-364.42 704.11,-362.31"/>
<polygon fill="#757575" stroke="#757575" points="704.67,-365.77 713.87,-360.52 703.41,-358.88 704.67,-365.77"/>
</g>
<!-- screens/CalendarScreen/CalendarScreen.tsx&#45;&gt;components/Infobox/index.ts -->
<g id="edge28" class="edge">
<title>screens/CalendarScreen/CalendarScreen.tsx&#45;&gt;components/Infobox/index.ts</title>
<path fill="none" stroke="#757575" d="M504.78,-422.89C532.41,-448.39 601.23,-507.95 670.5,-536.88 675.35,-538.9 680.38,-540.73 685.53,-542.38"/>
<polygon fill="#757575" stroke="#757575" points="684.17,-545.63 694.75,-545.1 686.15,-538.91 684.17,-545.63"/>
</g>
<!-- screens/CalendarScreen/CalendarScreen.tsx&#45;&gt;components/InformationIcon/index.ts -->
<g id="edge29" class="edge">
<title>screens/CalendarScreen/CalendarScreen.tsx&#45;&gt;components/InformationIcon/index.ts</title>
<path fill="none" stroke="#757575" d="M513.34,-423.14C546.02,-441.5 611.14,-475.98 670.5,-494.88 677.56,-497.12 684.94,-499.15 692.41,-500.98"/>
<polygon fill="#757575" stroke="#757575" points="691.4,-504.33 701.93,-503.17 692.97,-497.51 691.4,-504.33"/>
</g>
<!-- screens/CalendarScreen/CalendarScreen.tsx&#45;&gt;components/InitiativeCard/index.ts -->
<g id="edge30" class="edge">
<title>screens/CalendarScreen/CalendarScreen.tsx&#45;&gt;components/InitiativeCard/index.ts</title>
<path fill="none" stroke="#757575" d="M522.58,-398.56C551.72,-386.5 596.71,-367.18 634.5,-347.88 651,-339.45 653.11,-333.26 670.5,-326.88 676.44,-324.69 682.64,-322.73 688.95,-320.97"/>
<polygon fill="#757575" stroke="#757575" points="689.38,-324.47 698.18,-318.57 687.62,-317.7 689.38,-324.47"/>
</g>
<!-- screens/CalendarScreen/CalendarScreen.tsx&#45;&gt;components/OfferIcon/index.ts -->
<g id="edge31" class="edge">
<title>screens/CalendarScreen/CalendarScreen.tsx&#45;&gt;components/OfferIcon/index.ts</title>
<path fill="none" stroke="#757575" d="M634.67,-400.77C649.18,-399.75 663.76,-398.71 677.86,-397.71"/>
<polygon fill="#757575" stroke="#757575" points="677.81,-401.23 687.54,-397.03 677.32,-394.24 677.81,-401.23"/>
</g>
<!-- screens/CalendarScreen/CalendarScreen.tsx&#45;&gt;components/SparkleIcon/index.ts -->
<g id="edge32" class="edge">
<title>screens/CalendarScreen/CalendarScreen.tsx&#45;&gt;components/SparkleIcon/index.ts</title>
<path fill="none" stroke="#757575" d="M541.18,-423.19C576.92,-431.98 626.57,-443.8 670.5,-452.88 681.35,-455.12 692.79,-457.33 704.11,-459.44"/>
<polygon fill="#757575" stroke="#757575" points="703.41,-462.87 713.87,-461.23 704.67,-455.98 703.41,-462.87"/>
</g>
<!-- screens/CalendarScreen/CalendarScreen.tsx&#45;&gt;components/WorkshopIcon/index.ts -->
<g id="edge33" class="edge">
<title>screens/CalendarScreen/CalendarScreen.tsx&#45;&gt;components/WorkshopIcon/index.ts</title>
<path fill="none" stroke="#757575" d="M634.67,-420.98C644.05,-421.64 653.47,-422.31 662.76,-422.97"/>
<polygon fill="#757575" stroke="#757575" points="662.29,-426.44 672.51,-423.66 662.79,-419.46 662.29,-426.44"/>
</g>
<!-- screens/Homepage/Homepage.tsx&#45;&gt;components/Accordion/index.ts -->
<g id="edge35" class="edge">
<title>screens/Homepage/Homepage.tsx&#45;&gt;components/Accordion/index.ts</title>
<path fill="none" stroke="#757575" d="M541.18,-314.56C576.92,-305.77 626.57,-293.95 670.5,-284.88 681.35,-282.63 692.79,-280.42 704.11,-278.31"/>
<polygon fill="#757575" stroke="#757575" points="704.67,-281.77 713.87,-276.52 703.41,-274.88 704.67,-281.77"/>
</g>
<!-- screens/Homepage/Homepage.tsx&#45;&gt;components/Button/index.ts -->
<g id="edge36" class="edge">
<title>screens/Homepage/Homepage.tsx&#45;&gt;components/Button/index.ts</title>
<path fill="none" stroke="#757575" d="M513.34,-314.61C546.02,-296.25 611.14,-261.77 670.5,-242.88 677.56,-240.63 684.94,-238.6 692.41,-236.77"/>
<polygon fill="#757575" stroke="#757575" points="692.97,-240.24 701.93,-234.58 691.4,-233.42 692.97,-240.24"/>
</g>
<!-- screens/Homepage/Homepage.tsx&#45;&gt;components/ChallengeIcon/index.ts -->
<g id="edge37" class="edge">
<title>screens/Homepage/Homepage.tsx&#45;&gt;components/ChallengeIcon/index.ts</title>
<path fill="none" stroke="#757575" d="M604.17,-334.81C623.22,-336.16 643.11,-337.57 662.49,-338.95"/>
<polygon fill="#757575" stroke="#757575" points="662.1,-342.43 672.32,-339.64 662.59,-335.44 662.1,-342.43"/>
</g>
<!-- screens/Homepage/Homepage.tsx&#45;&gt;components/InitiativeCard/index.ts -->
<g id="edge38" class="edge">
<title>screens/Homepage/Homepage.tsx&#45;&gt;components/InitiativeCard/index.ts</title>
<path fill="none" stroke="#757575" d="M604.17,-318.94C624.5,-317.5 645.8,-315.99 666.4,-314.53"/>
<polygon fill="#757575" stroke="#757575" points="666.53,-318.03 676.26,-313.83 666.04,-311.04 666.53,-318.03"/>
</g>
<!-- screens/Homepage/Homepage.tsx&#45;&gt;components/OfferIcon/index.ts -->
<g id="edge39" class="edge">
<title>screens/Homepage/Homepage.tsx&#45;&gt;components/OfferIcon/index.ts</title>
<path fill="none" stroke="#757575" d="M541.18,-339.19C576.92,-347.98 626.57,-359.8 670.5,-368.88 681.35,-371.12 692.79,-373.33 704.11,-375.44"/>
<polygon fill="#757575" stroke="#757575" points="703.41,-378.87 713.87,-377.23 704.67,-371.98 703.41,-378.87"/>
</g>
<!-- screens/Homepage/Homepage.tsx&#45;&gt;components/SparkleIcon/index.ts -->
<g id="edge40" class="edge">
<title>screens/Homepage/Homepage.tsx&#45;&gt;components/SparkleIcon/index.ts</title>
<path fill="none" stroke="#757575" d="M538.66,-339.19C568.73,-349.01 607.21,-365.25 634.5,-389.88 658.44,-411.48 644.14,-434.3 670.5,-452.88 672.29,-454.13 674.12,-455.32 676.01,-456.45"/>
<polygon fill="#757575" stroke="#757575" points="673.94,-459.32 684.42,-460.86 677.18,-453.12 673.94,-459.32"/>
</g>
<!-- screens/Homepage/Homepage.tsx&#45;&gt;components/WorkshopIcon/index.ts -->
<g id="edge41" class="edge">
<title>screens/Homepage/Homepage.tsx&#45;&gt;components/WorkshopIcon/index.ts</title>
<path fill="none" stroke="#757575" d="M522.58,-339.19C551.72,-351.25 596.71,-370.57 634.5,-389.88 651,-398.3 653.11,-404.49 670.5,-410.88 676.44,-413.06 682.64,-415.02 688.95,-416.78"/>
<polygon fill="#757575" stroke="#757575" points="687.62,-420.05 698.18,-419.18 689.38,-413.28 687.62,-420.05"/>
</g>
<!-- screens/Modal/Modal.tsx&#45;&gt;components/Button/index.ts -->
<g id="edge43" class="edge">
<title>screens/Modal/Modal.tsx&#45;&gt;components/Button/index.ts</title>
<path fill="none" stroke="#757575" d="M574.68,-229.09C609.3,-227.92 649.9,-226.55 686.37,-225.32"/>
<polygon fill="#757575" stroke="#757575" points="686.15,-228.83 696.03,-225 685.92,-221.83 686.15,-228.83"/>
</g>
<!-- screens/SubmitIdea/SubmitIdea.tsx&#45;&gt;components/BackIcon/index.ts -->
<g id="edge45" class="edge">
<title>screens/SubmitIdea/SubmitIdea.tsx&#45;&gt;components/BackIcon/index.ts</title>
<path fill="none" stroke="#757575" d="M579.44,-150.25C614.26,-155.18 654.5,-160.89 690.33,-165.96"/>
<polygon fill="#757575" stroke="#757575" points="689.4,-169.37 699.79,-167.3 690.38,-162.44 689.4,-169.37"/>
</g>
<!-- screens/SubmitIdea/SubmitIdea.tsx&#45;&gt;components/Button/index.ts -->
<g id="edge46" class="edge">
<title>screens/SubmitIdea/SubmitIdea.tsx&#45;&gt;components/Button/index.ts</title>
<path fill="none" stroke="#757575" d="M522.27,-150.23C557.36,-164.21 617.31,-186.85 670.5,-200.88 679.23,-203.18 688.38,-205.3 697.57,-207.24"/>
<polygon fill="#757575" stroke="#757575" points="696.79,-210.65 707.29,-209.22 698.18,-203.79 696.79,-210.65"/>
</g>
<!-- screens/SubmitIdea/SubmitIdea.tsx&#45;&gt;components/Checkbox/index.ts -->
<g id="edge47" class="edge">
<title>screens/SubmitIdea/SubmitIdea.tsx&#45;&gt;components/Checkbox/index.ts</title>
<path fill="none" stroke="#757575" d="M606.29,-137.88C629.03,-137.88 652.89,-137.88 675.59,-137.88"/>
<polygon fill="#757575" stroke="#757575" points="675.47,-141.38 685.47,-137.88 675.47,-134.38 675.47,-141.38"/>
</g>
<!-- screens/SubmitIdea/SubmitIdea.tsx&#45;&gt;components/Select/index.ts -->
<g id="edge48" class="edge">
<title>screens/SubmitIdea/SubmitIdea.tsx&#45;&gt;components/Select/index.ts</title>
<path fill="none" stroke="#757575" d="M579.44,-125.5C614.26,-120.57 654.5,-114.86 690.33,-109.79"/>
<polygon fill="#757575" stroke="#757575" points="690.38,-113.31 699.79,-108.45 689.4,-106.38 690.38,-113.31"/>
</g>
<!-- screens/SubmitIdea/SubmitIdea.tsx&#45;&gt;components/TextArea/index.ts -->
<g id="edge49" class="edge">
<title>screens/SubmitIdea/SubmitIdea.tsx&#45;&gt;components/TextArea/index.ts</title>
<path fill="none" stroke="#757575" d="M522.27,-125.52C557.36,-111.54 617.31,-88.9 670.5,-74.88 679.23,-72.57 688.38,-70.45 697.57,-68.51"/>
<polygon fill="#757575" stroke="#757575" points="698.18,-71.96 707.29,-66.53 696.79,-65.1 698.18,-71.96"/>
</g>
<!-- screens/SubmitIdea/SubmitIdea.tsx&#45;&gt;components/TextField/index.ts -->
<g id="edge50" class="edge">
<title>screens/SubmitIdea/SubmitIdea.tsx&#45;&gt;components/TextField/index.ts</title>
<path fill="none" stroke="#757575" d="M508.33,-125.61C538.51,-103.41 606.12,-56.67 670.5,-32.88 676.23,-30.76 682.2,-28.85 688.28,-27.13"/>
<polygon fill="#757575" stroke="#757575" points="689.07,-30.54 697.85,-24.62 687.29,-23.77 689.07,-30.54"/>
</g>
</g>
</svg>
